<svg width="512" height="512" viewBox="0 0 512 512" fill="none" xmlns="http://www.w3.org/2000/svg">
<circle cx="256" cy="256" r="256" fill="white"/>
<circle cx="256" cy="256" r="254.439" stroke="black" stroke-opacity="0.2" stroke-width="3.12195"/>
<rect x="35.7188" y="35.7188" width="440.558" height="440.558" rx="220.279" fill="white"/>
<rect x="35.7188" y="35.7188" width="440.558" height="440.558" rx="220.279" fill="url(#paint0_radial_2171_5152)"/>
<rect x="37.2042" y="37.2042" width="437.587" height="437.587" rx="218.794" stroke="black" stroke-opacity="0.04" stroke-width="2.9709"/>
<mask id="path-5-inside-1_2171_5152" fill="white">
<path d="M340.969 302.386C347.574 302.024 353.221 307.085 353.583 313.69C354.859 336.995 339.288 363.943 316.306 380.749C292.47 398.179 258.863 406.172 222.615 389.161C216.627 386.351 214.051 379.218 216.861 373.229C219.672 367.241 226.805 364.664 232.793 367.475C260.089 380.284 284.433 374.379 302.166 361.412C320.752 347.821 330.369 327.872 329.664 315C329.302 308.395 334.364 302.748 340.969 302.386ZM208.05 196.925C208.663 190.338 214.499 185.496 221.086 186.109C227.673 186.722 232.515 192.559 231.902 199.146C228.969 230.657 227.008 261.166 226.515 292.39C240.758 284.584 253.647 277.51 267.641 269.639C273.406 266.396 280.709 268.441 283.952 274.206C287.195 279.971 285.15 287.275 279.385 290.518C260.891 300.92 244.278 309.961 224.27 320.939L223.788 321.204L223.284 321.423C222.873 321.601 222.651 321.703 222.356 321.835C222.219 321.897 221.442 322.257 220.529 322.543C219.374 322.905 218.42 323.03 217.996 323.083C217.834 323.103 217.614 323.129 217.555 323.136C217.451 323.148 217.346 323.16 217.219 323.177L216.455 323.274H215.686C212.52 323.274 208.744 322.149 205.871 318.959C203.413 316.23 202.779 313.232 202.57 311.844C202.346 310.352 202.386 309.042 202.403 308.521C202.412 308.251 202.429 307.895 202.433 307.819C202.435 307.773 202.436 307.742 202.437 307.724L202.442 304.254C202.572 267.93 204.697 232.948 208.05 196.925ZM132.216 177.948C144.009 170.771 158.724 168.748 174.256 169.084C180.869 169.227 186.115 174.705 185.972 181.318C185.828 187.932 180.351 193.177 173.737 193.034C160.042 192.738 150.744 194.715 144.67 198.412C139.224 201.726 134.976 207.271 133.125 217.964C131.997 224.482 125.798 228.852 119.28 227.724C112.762 226.595 108.393 220.396 109.521 213.878C112.32 197.712 119.794 185.508 132.216 177.948ZM262.706 119.5C276.32 116.073 290.82 117.91 305.411 122.314C311.744 124.226 315.328 130.909 313.417 137.242C311.505 143.575 304.822 147.159 298.489 145.248C286.022 141.485 276.3 140.781 268.555 142.73C261.213 144.579 254.307 149.147 247.878 158.832C244.22 164.343 236.787 165.845 231.275 162.188C225.764 158.529 224.262 151.095 227.92 145.584C237.098 131.757 248.689 123.029 262.706 119.5Z"/>
</mask>
<g filter="url(#filter0_iii_2171_5152)">
<path d="M340.969 302.386C347.574 302.024 353.221 307.085 353.583 313.69C354.859 336.995 339.288 363.943 316.306 380.749C292.47 398.179 258.863 406.172 222.615 389.161C216.627 386.351 214.051 379.218 216.861 373.229C219.672 367.241 226.805 364.664 232.793 367.475C260.089 380.284 284.433 374.379 302.166 361.412C320.752 347.821 330.369 327.872 329.664 315C329.302 308.395 334.364 302.748 340.969 302.386ZM208.05 196.925C208.663 190.338 214.499 185.496 221.086 186.109C227.673 186.722 232.515 192.559 231.902 199.146C228.969 230.657 227.008 261.166 226.515 292.39C240.758 284.584 253.647 277.51 267.641 269.639C273.406 266.396 280.709 268.441 283.952 274.206C287.195 279.971 285.15 287.275 279.385 290.518C260.891 300.92 244.278 309.961 224.27 320.939L223.788 321.204L223.284 321.423C222.873 321.601 222.651 321.703 222.356 321.835C222.219 321.897 221.442 322.257 220.529 322.543C219.374 322.905 218.42 323.03 217.996 323.083C217.834 323.103 217.614 323.129 217.555 323.136C217.451 323.148 217.346 323.16 217.219 323.177L216.455 323.274H215.686C212.52 323.274 208.744 322.149 205.871 318.959C203.413 316.23 202.779 313.232 202.57 311.844C202.346 310.352 202.386 309.042 202.403 308.521C202.412 308.251 202.429 307.895 202.433 307.819C202.435 307.773 202.436 307.742 202.437 307.724L202.442 304.254C202.572 267.93 204.697 232.948 208.05 196.925ZM132.216 177.948C144.009 170.771 158.724 168.748 174.256 169.084C180.869 169.227 186.115 174.705 185.972 181.318C185.828 187.932 180.351 193.177 173.737 193.034C160.042 192.738 150.744 194.715 144.67 198.412C139.224 201.726 134.976 207.271 133.125 217.964C131.997 224.482 125.798 228.852 119.28 227.724C112.762 226.595 108.393 220.396 109.521 213.878C112.32 197.712 119.794 185.508 132.216 177.948ZM262.706 119.5C276.32 116.073 290.82 117.91 305.411 122.314C311.744 124.226 315.328 130.909 313.417 137.242C311.505 143.575 304.822 147.159 298.489 145.248C286.022 141.485 276.3 140.781 268.555 142.73C261.213 144.579 254.307 149.147 247.878 158.832C244.22 164.343 236.787 165.845 231.275 162.188C225.764 158.529 224.262 151.095 227.92 145.584C237.098 131.757 248.689 123.029 262.706 119.5Z" fill="#289A45"/>
</g>
<path d="M340.969 302.386L340.918 301.454L340.918 301.454L340.969 302.386ZM353.583 313.69L354.515 313.639L354.515 313.639L353.583 313.69ZM316.306 380.749L316.857 381.502L316.857 381.502L316.306 380.749ZM222.615 389.161L222.219 390.006L222.219 390.006L222.615 389.161ZM216.861 373.229L216.016 372.833L216.016 372.833L216.861 373.229ZM232.793 367.475L232.396 368.32L232.396 368.32L232.793 367.475ZM302.166 361.412L302.717 362.166L302.717 362.166L302.166 361.412ZM329.664 315L330.596 314.949L330.596 314.949L329.664 315ZM208.05 196.925L207.12 196.838L207.12 196.838L208.05 196.925ZM221.086 186.109L221.172 185.18L221.172 185.18L221.086 186.109ZM231.902 199.146L230.973 199.059L230.973 199.059L231.902 199.146ZM226.515 292.39L225.581 292.375L225.556 293.979L226.963 293.208L226.515 292.39ZM267.641 269.639L267.183 268.825L267.183 268.825L267.641 269.639ZM283.952 274.206L284.766 273.749L284.766 273.748L283.952 274.206ZM279.385 290.518L279.842 291.331L279.842 291.331L279.385 290.518ZM224.27 320.939L223.821 320.121L223.82 320.122L224.27 320.939ZM223.788 321.204L224.16 322.06L224.2 322.043L224.238 322.022L223.788 321.204ZM223.284 321.423L222.912 320.567L222.912 320.567L223.284 321.423ZM222.356 321.835L221.975 320.983L221.974 320.983L222.356 321.835ZM220.529 322.543L220.808 323.434L220.808 323.434L220.529 322.543ZM217.996 323.083L218.111 324.009L218.112 324.009L217.996 323.083ZM217.555 323.136L217.447 322.209L217.447 322.209L217.555 323.136ZM217.219 323.177L217.337 324.103L217.338 324.102L217.219 323.177ZM216.455 323.274V324.208H216.515L216.573 324.2L216.455 323.274ZM215.686 323.274L215.686 324.208H215.686V323.274ZM205.871 318.959L205.177 319.584L205.177 319.584L205.871 318.959ZM202.57 311.844L201.647 311.983L201.647 311.983L202.57 311.844ZM202.403 308.521L201.47 308.491L201.47 308.491L202.403 308.521ZM202.433 307.819L203.365 307.859L203.365 307.859L202.433 307.819ZM202.437 307.724L203.369 307.757L203.37 307.741L203.37 307.725L202.437 307.724ZM202.442 304.254L201.509 304.251L201.509 304.252L202.442 304.254ZM132.216 177.948L131.731 177.151L131.731 177.151L132.216 177.948ZM174.256 169.084L174.276 168.151L174.276 168.151L174.256 169.084ZM185.972 181.318L186.905 181.339L186.905 181.339L185.972 181.318ZM173.737 193.034L173.758 192.101L173.758 192.101L173.737 193.034ZM144.67 198.412L144.185 197.615L144.185 197.615L144.67 198.412ZM133.125 217.964L134.045 218.123L134.045 218.123L133.125 217.964ZM119.28 227.724L119.121 228.643L119.121 228.643L119.28 227.724ZM109.521 213.878L108.602 213.719L108.602 213.719L109.521 213.878ZM262.706 119.5L262.478 118.595L262.478 118.595L262.706 119.5ZM305.411 122.314L305.681 121.421L305.681 121.421L305.411 122.314ZM313.417 137.242L314.311 137.512L314.311 137.512L313.417 137.242ZM298.489 145.248L298.22 146.142L298.22 146.142L298.489 145.248ZM268.555 142.73L268.327 141.825L268.327 141.825L268.555 142.73ZM247.878 158.832L248.656 159.348L248.656 159.348L247.878 158.832ZM231.275 162.188L230.759 162.965L230.759 162.965L231.275 162.188ZM227.92 145.584L227.142 145.068L227.142 145.068L227.92 145.584ZM340.969 302.386L341.02 303.318C347.11 302.984 352.317 307.651 352.651 313.741L353.583 313.69L354.515 313.639C354.125 306.52 348.038 301.064 340.918 301.454L340.969 302.386ZM353.583 313.69L352.651 313.741C353.905 336.639 338.567 363.314 315.755 379.996L316.306 380.749L316.857 381.502C340.009 364.572 355.813 337.352 354.515 313.639L353.583 313.69ZM316.306 380.749L315.755 379.996C292.156 397.252 258.91 405.163 223.012 388.316L222.615 389.161L222.219 390.006C258.816 407.181 292.784 399.106 316.857 381.502L316.306 380.749ZM222.615 389.161L223.012 388.316C217.49 385.725 215.115 379.148 217.706 373.626L216.861 373.229L216.016 372.833C212.987 379.288 215.764 386.977 222.219 390.006L222.615 389.161ZM216.861 373.229L217.706 373.626C220.298 368.104 226.875 365.728 232.396 368.32L232.793 367.475L233.19 366.63C226.734 363.6 219.046 366.378 216.016 372.833L216.861 373.229ZM232.793 367.475L232.396 368.32C260.04 381.292 284.745 375.307 302.717 362.166L302.166 361.412L301.615 360.659C284.12 373.452 260.137 379.276 233.19 366.63L232.793 367.475ZM302.166 361.412L302.717 362.166C312.122 355.288 319.261 346.801 323.964 338.392C328.658 329.999 330.961 321.616 330.596 314.949L329.664 315L328.732 315.051C329.072 321.256 326.919 329.284 322.335 337.481C317.759 345.662 310.797 353.944 301.615 360.659L302.166 361.412ZM329.664 315L330.596 314.949C330.263 308.859 334.929 303.651 341.02 303.318L340.969 302.386L340.918 301.454C333.798 301.844 328.342 307.931 328.732 315.051L329.664 315ZM208.05 196.925L208.979 197.011C209.545 190.938 214.926 186.474 220.999 187.039L221.086 186.109L221.172 185.18C214.073 184.519 207.781 189.739 207.12 196.838L208.05 196.925ZM221.086 186.109L220.999 187.039C227.073 187.604 231.538 192.986 230.973 199.059L231.902 199.146L232.832 199.232C233.493 192.132 228.272 185.841 221.172 185.18L221.086 186.109ZM231.902 199.146L230.973 199.059C228.038 230.588 226.075 261.121 225.581 292.375L226.515 292.39L227.448 292.404C227.941 261.21 229.9 230.726 232.832 199.232L231.902 199.146ZM226.515 292.39L226.963 293.208C241.206 285.403 254.099 278.327 268.098 270.452L267.641 269.639L267.183 268.825C253.194 276.694 240.309 283.765 226.066 291.571L226.515 292.39ZM267.641 269.639L268.098 270.452C273.414 267.462 280.148 269.347 283.139 274.664L283.952 274.206L284.766 273.748C281.27 267.534 273.398 265.33 267.183 268.825L267.641 269.639ZM283.952 274.206L283.139 274.664C286.129 279.98 284.243 286.714 278.927 289.704L279.385 290.518L279.842 291.331C286.057 287.835 288.261 279.963 284.766 273.749L283.952 274.206ZM279.385 290.518L278.927 289.704C260.439 300.103 243.833 309.141 223.821 320.121L224.27 320.939L224.719 321.758C244.724 310.781 261.343 301.737 279.842 291.331L279.385 290.518ZM224.27 320.939L223.82 320.122L223.338 320.386L223.788 321.204L224.238 322.022L224.719 321.757L224.27 320.939ZM223.788 321.204L223.416 320.348L222.912 320.567L223.284 321.423L223.656 322.279L224.16 322.06L223.788 321.204ZM223.284 321.423L222.912 320.567C222.495 320.748 222.266 320.852 221.975 320.983L222.356 321.835L222.738 322.687C223.036 322.553 223.252 322.455 223.656 322.279L223.284 321.423ZM222.356 321.835L221.974 320.983C221.833 321.047 221.104 321.385 220.25 321.652L220.529 322.543L220.808 323.434C221.781 323.129 222.605 322.747 222.738 322.687L222.356 321.835ZM220.529 322.543L220.25 321.652C219.174 321.989 218.285 322.106 217.881 322.157L217.996 323.083L218.112 324.009C218.555 323.954 219.574 323.82 220.808 323.434L220.529 322.543ZM217.996 323.083L217.881 322.157C217.723 322.176 217.506 322.202 217.447 322.209L217.555 323.136L217.662 324.063C217.721 324.056 217.945 324.03 218.111 324.009L217.996 323.083ZM217.555 323.136L217.447 322.209C217.34 322.221 217.231 322.234 217.099 322.251L217.219 323.177L217.338 324.102C217.46 324.087 217.561 324.075 217.662 324.063L217.555 323.136ZM217.219 323.177L217.1 322.251L216.337 322.349L216.455 323.274L216.573 324.2L217.337 324.103L217.219 323.177ZM216.455 323.274V322.341H215.686V323.274V324.208H216.455V323.274ZM215.686 323.274L215.686 322.341C212.731 322.341 209.227 321.291 206.565 318.334L205.871 318.959L205.177 319.584C208.26 323.007 212.31 324.208 215.686 324.208L215.686 323.274ZM205.871 318.959L206.565 318.334C204.283 315.801 203.69 313.013 203.493 311.705L202.57 311.844L201.647 311.983C201.868 313.452 202.544 316.658 205.177 319.584L205.871 318.959ZM202.57 311.844L203.493 311.705C203.282 310.301 203.319 309.061 203.336 308.552L202.403 308.521L201.47 308.491C201.453 309.023 201.41 310.403 201.647 311.983L202.57 311.844ZM202.403 308.521L203.336 308.552C203.345 308.287 203.362 307.944 203.365 307.859L202.433 307.819L201.5 307.78C201.497 307.846 201.48 308.214 201.47 308.491L202.403 308.521ZM202.433 307.819L203.365 307.859C203.367 307.813 203.369 307.779 203.369 307.757L202.437 307.724L201.504 307.69C201.503 307.705 201.502 307.733 201.5 307.78L202.433 307.819ZM202.437 307.724L203.37 307.725L203.376 304.255L202.442 304.254L201.509 304.252L201.503 307.722L202.437 307.724ZM202.442 304.254L203.376 304.257C203.505 267.968 205.628 233.015 208.979 197.011L208.05 196.925L207.12 196.838C203.765 232.881 201.639 267.892 201.509 304.251L202.442 304.254ZM132.216 177.948L132.701 178.746C144.271 171.704 158.775 169.682 174.236 170.017L174.256 169.084L174.276 168.151C158.672 167.813 143.746 169.838 131.731 177.151L132.216 177.948ZM174.256 169.084L174.236 170.017C180.334 170.149 185.17 175.2 185.039 181.298L185.972 181.318L186.905 181.339C187.059 174.21 181.405 168.305 174.276 168.151L174.256 169.084ZM185.972 181.318L185.039 181.298C184.906 187.396 179.856 192.233 173.758 192.101L173.737 193.034L173.717 193.967C180.846 194.122 186.75 188.467 186.905 181.339L185.972 181.318ZM173.737 193.034L173.758 192.101C159.99 191.803 150.482 193.782 144.185 197.615L144.67 198.412L145.155 199.209C151.007 195.648 160.093 193.672 173.717 193.967L173.737 193.034ZM144.67 198.412L144.185 197.615C138.469 201.094 134.094 206.896 132.205 217.805L133.125 217.964L134.045 218.123C135.859 207.645 139.98 202.359 145.155 199.209L144.67 198.412ZM133.125 217.964L132.205 217.805C131.165 223.815 125.449 227.844 119.439 226.804L119.28 227.724L119.121 228.643C126.147 229.86 132.828 225.149 134.045 218.123L133.125 217.964ZM119.28 227.724L119.439 226.804C113.43 225.764 109.401 220.047 110.441 214.037L109.521 213.878L108.602 213.719C107.386 220.745 112.095 227.427 119.121 228.643L119.28 227.724ZM109.521 213.878L110.441 214.037C113.203 198.083 120.552 186.139 132.701 178.746L132.216 177.948L131.731 177.151C119.037 184.876 111.437 197.34 108.602 213.719L109.521 213.878ZM262.706 119.5L262.934 120.405C276.319 117.035 290.633 118.829 305.141 123.208L305.411 122.314L305.681 121.421C291.007 116.992 276.321 115.11 262.478 118.595L262.706 119.5ZM305.411 122.314L305.141 123.208C310.981 124.971 314.286 131.133 312.523 136.972L313.417 137.242L314.311 137.512C316.371 130.686 312.507 123.481 305.681 121.421L305.411 122.314ZM313.417 137.242L312.523 136.972C310.761 142.812 304.598 146.117 298.759 144.354L298.489 145.248L298.22 146.142C305.046 148.202 312.25 144.338 314.311 137.512L313.417 137.242ZM298.489 145.248L298.759 144.354C286.209 140.566 276.3 139.818 268.327 141.825L268.555 142.73L268.783 143.636C276.299 141.743 285.836 142.404 298.22 146.142L298.489 145.248ZM268.555 142.73L268.327 141.825C260.726 143.739 253.637 148.469 247.1 158.316L247.878 158.832L248.656 159.348C254.977 149.825 261.7 145.419 268.783 143.636L268.555 142.73ZM247.878 158.832L247.1 158.316C243.727 163.397 236.873 164.783 231.792 161.41L231.275 162.188L230.759 162.965C236.7 166.908 244.712 165.289 248.656 159.348L247.878 158.832ZM231.275 162.188L231.792 161.41C226.71 158.037 225.325 151.182 228.698 146.1L227.92 145.584L227.142 145.068C223.199 151.009 224.818 159.022 230.759 162.965L231.275 162.188ZM227.92 145.584L228.698 146.1C237.769 132.434 249.177 123.869 262.934 120.405L262.706 119.5L262.478 118.595C248.201 122.189 236.427 131.08 227.142 145.068L227.92 145.584Z" fill="#1D6D31" mask="url(#path-5-inside-1_2171_5152)"/>
<defs>
<filter id="filter0_iii_2171_5152" x="109.344" y="113.611" width="244.312" height="293.181" filterUnits="userSpaceOnUse" color-interpolation-filters="sRGB">
<feFlood flood-opacity="0" result="BackgroundImageFix"/>
<feBlend mode="normal" in="SourceGraphic" in2="BackgroundImageFix" result="shape"/>
<feColorMatrix in="SourceAlpha" type="matrix" values="0 0 0 0 0 0 0 0 0 0 0 0 0 0 0 0 0 0 127 0" result="hardAlpha"/>
<feOffset dy="3.0805"/>
<feGaussianBlur stdDeviation="1.54025"/>
<feComposite in2="hardAlpha" operator="arithmetic" k2="-1" k3="1"/>
<feColorMatrix type="matrix" values="0 0 0 0 0 0 0 0 0 0 0 0 0 0 0 0 0 0 0.05 0"/>
<feBlend mode="normal" in2="shape" result="effect1_innerShadow_2171_5152"/>
<feColorMatrix in="SourceAlpha" type="matrix" values="0 0 0 0 0 0 0 0 0 0 0 0 0 0 0 0 0 0 127 0" result="hardAlpha"/>
<feOffset dy="8.21466"/>
<feGaussianBlur stdDeviation="22.5903"/>
<feComposite in2="hardAlpha" operator="arithmetic" k2="-1" k3="1"/>
<feColorMatrix type="matrix" values="0 0 0 0 0 0 0 0 0 0 0 0 0 0 0 0 0 0 0.16 0"/>
<feBlend mode="normal" in2="effect1_innerShadow_2171_5152" result="effect2_innerShadow_2171_5152"/>
<feColorMatrix in="SourceAlpha" type="matrix" values="0 0 0 0 0 0 0 0 0 0 0 0 0 0 0 0 0 0 127 0" result="hardAlpha"/>
<feOffset dy="-4.10733"/>
<feGaussianBlur stdDeviation="6.16099"/>
<feComposite in2="hardAlpha" operator="arithmetic" k2="-1" k3="1"/>
<feColorMatrix type="matrix" values="0 0 0 0 1 0 0 0 0 1 0 0 0 0 1 0 0 0 0.1 0"/>
<feBlend mode="normal" in2="effect2_innerShadow_2171_5152" result="effect3_innerShadow_2171_5152"/>
</filter>
<radialGradient id="paint0_radial_2171_5152" cx="0" cy="0" r="1" gradientUnits="userSpaceOnUse" gradientTransform="translate(255.998 255.998) rotate(90) scale(220.279 292.554)">
<stop stop-color="#34C759" stop-opacity="0.93"/>
<stop offset="1" stop-color="#34C759"/>
</radialGradient>
</defs>
</svg>
