<svg xmlns="http://www.w3.org/2000/svg" version="1.1" xmlns:xlink="http://www.w3.org/1999/xlink" width="1000" height="1000"><metadata><rdf:RDF xmlns:rdf="http://www.w3.org/1999/02/22-rdf-syntax-ns#" xmlns:dc="http://purl.org/dc/elements/1.1/"><rdf:Description><dc:creator>RealFaviconGenerator</dc:creator><dc:source>https://realfavicongenerator.net</dc:source></rdf:Description></rdf:RDF></metadata><g clip-path="url(#SvgjsClipPath2164)"><rect width="1000" height="1000" fill="#e0e0e0"></rect><g transform="matrix(31.25,0,0,31.25,0,0)"><svg xmlns="http://www.w3.org/2000/svg" width="32" height="32" viewBox="0 0 32 32" fill="none"><path d="M16 29C23.1797 29 29 23.1797 29 16C29 8.8203 23.1797 3 16 3C8.8203 3 3 8.8203 3 16C3 23.1797 8.8203 29 16 29Z" fill="#34C759" stroke="#EEEEEE" stroke-width="2"></path><path d="M16 4.1748C9.46923 4.17481 4.1748 9.46923 4.1748 16C4.17481 22.5308 9.46923 27.8252 16 27.8252C22.5308 27.8252 27.8252 22.5308 27.8252 16C27.8252 9.46923 22.5308 4.1748 16 4.1748Z" stroke="black" stroke-opacity="0.04" stroke-width="0.35"></path><path d="M21.5186 18.5195C21.9046 18.498 22.2353 18.7937 22.2569 19.1797C22.332 20.5273 21.4145 22.0747 20.0733 23.0361C18.6814 24.0339 16.7235 24.4896 14.6104 23.5176C14.2592 23.356 14.1052 22.941 14.2666 22.5898C14.4282 22.2386 14.8441 22.0845 15.1953 22.2461C16.7944 22.9817 18.2212 22.6415 19.2578 21.8984C20.3448 21.1192 20.8996 19.982 20.8594 19.2578C20.8378 18.8719 21.1327 18.5412 21.5186 18.5195ZM14.5176 11.8603C14.9021 11.8971 15.1838 12.2385 15.1475 12.623C14.9755 14.4343 14.8213 16.195 14.7803 17.9756C15.6351 17.5164 16.4041 17.1037 17.2403 16.6426C17.5788 16.4559 18.0047 16.5795 18.1914 16.918C18.3781 17.2565 18.2555 17.6824 17.917 17.8691C16.8367 18.4648 15.8662 18.9826 14.6973 19.6113L14.669 19.626L14.6397 19.6387C14.6159 19.6488 14.6029 19.6546 14.586 19.6621C14.5779 19.6657 14.5323 19.6859 14.4795 19.7021C14.4132 19.7225 14.3586 19.7304 14.334 19.7334C14.3246 19.7345 14.3112 19.7359 14.3076 19.7363C14.3017 19.737 14.2954 19.7373 14.2881 19.7383L14.2442 19.7441H14.2002C13.8934 19.7441 13.6434 19.583 13.5039 19.3603C13.3892 19.1772 13.3692 18.9889 13.3692 18.873L13.377 18.0644C13.415 16.184 13.5782 14.3414 13.7539 12.4912C13.7905 12.1063 14.1327 11.8238 14.5176 11.8603ZM11.7793 10.8848C12.1657 10.893 12.4729 11.2132 12.4649 11.5996C12.4567 11.9861 12.1365 12.2933 11.75 12.2851C10.9483 12.2681 10.4023 12.3811 10.0459 12.5937C9.72787 12.7836 9.48378 13.0985 9.37697 13.7031C9.30975 14.0838 8.94616 14.3377 8.56545 14.2705C8.185 14.2031 7.93092 13.8405 7.99807 13.46C8.16289 12.5265 8.60345 11.8245 9.32912 11.3916C10.0165 10.9816 10.8736 10.8656 11.7793 10.8848ZM16.9502 8.04492C17.7424 7.84942 18.587 7.95412 19.4385 8.20605C19.8092 8.31574 20.0208 8.70545 19.9112 9.07617C19.8014 9.44679 19.4117 9.6585 19.041 9.54882C18.3121 9.33318 17.7417 9.29193 17.2862 9.40429C16.8541 9.5109 16.4516 9.77376 16.0781 10.3252C15.8614 10.6453 15.4256 10.7294 15.1055 10.5127C14.7854 10.2959 14.7022 9.86015 14.919 9.54003C15.4572 8.74536 16.1347 8.24625 16.9502 8.04492Z" fill="#2E7E42"></path><path d="M21.5186 18.5195L21.5152 18.4596L21.5152 18.4596L21.5186 18.5195ZM22.2569 19.1797L22.3168 19.1763L22.3168 19.1763L22.2569 19.1797ZM20.0733 23.0361L20.1082 23.0849V23.0849L20.0733 23.0361ZM14.6104 23.5176L14.5853 23.5721L14.5853 23.5721L14.6104 23.5176ZM14.2666 22.5898L14.2121 22.5648L14.2121 22.5648L14.2666 22.5898ZM15.1953 22.2461L15.1703 22.3006L15.1703 22.3006L15.1953 22.2461ZM19.2578 21.8984L19.2928 21.9472L19.2928 21.9472L19.2578 21.8984ZM20.8594 19.2578L20.9193 19.2545L20.9193 19.2545L20.8594 19.2578ZM14.5176 11.8603L14.5233 11.8006L14.5233 11.8006L14.5176 11.8603ZM15.1475 12.623L15.2072 12.6287L15.2072 12.6287L15.1475 12.623ZM14.7803 17.9756L14.7203 17.9742L14.7179 18.0772L14.8087 18.0284L14.7803 17.9756ZM17.2403 16.6426L17.2692 16.6951V16.6951L17.2403 16.6426ZM18.1914 16.918L18.244 16.889L18.244 16.889L18.1914 16.918ZM17.917 17.8691L17.946 17.9217L17.946 17.9217L17.917 17.8691ZM14.6973 19.6113L14.7249 19.6646L14.7257 19.6642L14.6973 19.6113ZM14.669 19.626L14.6929 19.6812L14.6965 19.6793L14.669 19.626ZM14.6397 19.6387L14.6632 19.6939L14.6635 19.6937L14.6397 19.6387ZM14.586 19.6621L14.6101 19.717L14.6101 19.717L14.586 19.6621ZM14.4795 19.7021L14.4971 19.7595L14.4971 19.7595L14.4795 19.7021ZM14.334 19.7334L14.3413 19.7929L14.3413 19.7929L14.334 19.7334ZM14.3076 19.7363L14.3009 19.6767L14.3009 19.6767L14.3076 19.7363ZM14.2881 19.7383L14.2806 19.6787L14.2802 19.6788L14.2881 19.7383ZM14.2442 19.7441V19.8047L14.2521 19.8036L14.2442 19.7441ZM14.2002 19.7441L14.2002 19.8041H14.2002V19.7441ZM13.5039 19.3603L13.4531 19.3922L13.4531 19.3922L13.5039 19.3603ZM13.3692 18.873L13.3092 18.8725V18.8731L13.3692 18.873ZM13.377 18.0644L13.317 18.0632L13.317 18.0639L13.377 18.0644ZM13.7539 12.4912L13.6942 12.4855V12.4855L13.7539 12.4912ZM11.7793 10.8848L11.7806 10.8248H11.7806L11.7793 10.8848ZM12.4649 11.5996L12.5248 11.6009L12.5249 11.6008L12.4649 11.5996ZM11.75 12.2851L11.7487 12.3451H11.7488L11.75 12.2851ZM10.0459 12.5937L10.0152 12.5422L10.0152 12.5422L10.0459 12.5937ZM9.37697 13.7031L9.31789 13.6927L9.31789 13.6927L9.37697 13.7031ZM8.56545 14.2705L8.55498 14.3296L8.55502 14.3296L8.56545 14.2705ZM7.99807 13.46L7.93898 13.4495L7.93898 13.4495L7.99807 13.46ZM9.32912 11.3916L9.29838 11.3401L9.29838 11.3401L9.32912 11.3916ZM16.9502 8.04492L16.9358 7.98666L16.9358 7.98666L16.9502 8.04492ZM19.4385 8.20605L19.4555 8.14851L19.4555 8.14851L19.4385 8.20605ZM19.9112 9.07617L19.9687 9.0932L19.9687 9.09319L19.9112 9.07617ZM19.041 9.54882L19.0581 9.49129L19.0581 9.49129L19.041 9.54882ZM17.2862 9.40429L17.2718 9.34604L17.2718 9.34604L17.2862 9.40429ZM16.0781 10.3252L16.0285 10.2915L16.0285 10.2915L16.0781 10.3252ZM15.1055 10.5127L15.0718 10.5624L15.0719 10.5624L15.1055 10.5127ZM14.919 9.54003L14.8693 9.50639L14.8693 9.50639L14.919 9.54003ZM21.5186 18.5195L21.5219 18.5794C21.8748 18.5597 22.1772 18.8301 22.1969 19.183L22.2569 19.1797L22.3168 19.1763C22.2933 18.7573 21.9343 18.4362 21.5152 18.4596L21.5186 18.5195ZM22.2569 19.1797L22.1969 19.183C22.2706 20.5038 21.3687 22.0337 20.0383 22.9874L20.0733 23.0361L20.1082 23.0849C21.4602 22.1157 22.3934 20.5507 22.3168 19.1763L22.2569 19.1797ZM20.0733 23.0361L20.0383 22.9874C18.6616 23.9742 16.7265 24.425 14.6354 23.4631L14.6104 23.5176L14.5853 23.5721C16.7205 24.5543 18.7011 24.0935 20.1082 23.0849L20.0733 23.0361ZM14.6104 23.5176L14.6354 23.4631C14.3143 23.3153 14.1736 22.9359 14.3211 22.6149L14.2666 22.5898L14.2121 22.5648C14.0368 22.9461 14.2041 23.3967 14.5853 23.5721L14.6104 23.5176ZM14.2666 22.5898L14.3211 22.6149C14.4689 22.2938 14.8492 22.1529 15.1703 22.3006L15.1953 22.2461L15.2204 22.1916C14.839 22.0161 14.3875 22.1835 14.2121 22.5648L14.2666 22.5898ZM15.1953 22.2461L15.1703 22.3006C16.7913 23.0463 18.2409 22.7012 19.2928 21.9472L19.2578 21.8984L19.2229 21.8497C18.2016 22.5818 16.7975 22.917 15.2204 22.1916L15.1953 22.2461ZM19.2578 21.8984L19.2928 21.9472C19.8434 21.5525 20.2597 21.0668 20.5334 20.5872C20.8066 20.1087 20.9403 19.6318 20.9193 19.2545L20.8594 19.2578L20.7995 19.2611C20.8188 19.608 20.6952 20.0618 20.4292 20.5278C20.1638 20.9926 19.7592 21.4652 19.2229 21.8497L19.2578 21.8984ZM20.8594 19.2578L20.9193 19.2545C20.8996 18.9016 21.1692 18.5993 21.5219 18.5794L21.5186 18.5195L21.5152 18.4596C21.0962 18.4832 20.7761 18.8423 20.7995 19.2612L20.8594 19.2578ZM14.5176 11.8603L14.5119 11.9201C14.8634 11.9537 15.121 12.2657 15.0877 12.6174L15.1475 12.623L15.2072 12.6287C15.2466 12.2112 14.9409 11.8405 14.5233 11.8006L14.5176 11.8603ZM15.1475 12.623L15.0877 12.6174C14.9158 14.4287 14.7614 16.1913 14.7203 17.9742L14.7803 17.9756L14.8403 17.977C14.8813 16.1987 15.0352 14.4399 15.2072 12.6287L15.1475 12.623ZM14.7803 17.9756L14.8087 18.0284C15.6635 17.5692 16.4327 17.1564 17.2692 16.6951L17.2403 16.6426L17.2113 16.59C16.3754 17.0509 15.6068 17.4635 14.7519 17.9227L14.7803 17.9756ZM17.2403 16.6426L17.2692 16.6951C17.5787 16.5245 17.9682 16.6374 18.1389 16.9469L18.1914 16.918L18.244 16.889C18.0413 16.5215 17.5789 16.3873 17.2113 16.59L17.2403 16.6426ZM18.1914 16.918L18.1389 16.9469C18.3096 17.2565 18.1974 17.6459 17.888 17.8166L17.917 17.8691L17.946 17.9217C18.3135 17.7189 18.4466 17.2564 18.244 16.889L18.1914 16.918ZM17.917 17.8691L17.888 17.8166C16.8081 18.4121 15.8379 18.9297 14.6689 19.5585L14.6973 19.6113L14.7257 19.6642C15.8944 19.0356 16.8653 18.5176 17.946 17.9217L17.917 17.8691ZM14.6973 19.6113L14.6697 19.558L14.6414 19.5727L14.669 19.626L14.6965 19.6793L14.7249 19.6646L14.6973 19.6113ZM14.669 19.626L14.6451 19.5709L14.6158 19.5836L14.6397 19.6387L14.6635 19.6937L14.6928 19.681L14.669 19.626ZM14.6397 19.6387L14.6161 19.5835C14.5919 19.5938 14.5784 19.5999 14.5618 19.6072L14.586 19.6621L14.6101 19.717C14.6274 19.7094 14.6398 19.7038 14.6632 19.6939L14.6397 19.6387ZM14.586 19.6621L14.5618 19.6072C14.554 19.6106 14.5111 19.6297 14.4619 19.6448L14.4795 19.7021L14.4971 19.7595C14.5535 19.7422 14.6018 19.7207 14.6101 19.717L14.586 19.6621ZM14.4795 19.7021L14.4619 19.6448C14.4001 19.6638 14.3492 19.6711 14.3267 19.6738L14.334 19.7334L14.3413 19.7929C14.3679 19.7897 14.4262 19.7813 14.4971 19.7595L14.4795 19.7021ZM14.334 19.7334L14.3267 19.6738C14.3175 19.675 14.3058 19.6762 14.3009 19.6767L14.3076 19.7363L14.3144 19.7959C14.3166 19.7957 14.3317 19.7941 14.3413 19.7929L14.334 19.7334ZM14.3076 19.7363L14.3009 19.6767C14.2988 19.6769 14.2967 19.6771 14.293 19.6774C14.2897 19.6777 14.2854 19.6781 14.2806 19.6787L14.2881 19.7383L14.2956 19.7978C14.2982 19.7975 14.3007 19.7972 14.3037 19.797C14.3065 19.7967 14.3105 19.7964 14.3144 19.7959L14.3076 19.7363ZM14.2881 19.7383L14.2802 19.6788L14.2362 19.6847L14.2442 19.7441L14.2521 19.8036L14.296 19.7977L14.2881 19.7383ZM14.2442 19.7441V19.6841H14.2002V19.7441V19.8041H14.2442V19.7441ZM14.2002 19.7441L14.2002 19.6841C13.9155 19.6841 13.6841 19.5349 13.5548 19.3285L13.5039 19.3603L13.4531 19.3922C13.6027 19.631 13.8712 19.8041 14.2002 19.8041L14.2002 19.7441ZM13.5039 19.3603L13.5548 19.3285C13.4482 19.1584 13.4292 18.9826 13.4292 18.873L13.3692 18.873L13.3092 18.8731C13.3092 18.9952 13.3302 19.196 13.4531 19.3922L13.5039 19.3603ZM13.3692 18.873L13.4292 18.8736L13.437 18.065L13.377 18.0644L13.317 18.0639L13.3092 18.8725L13.3692 18.873ZM13.377 18.0644L13.437 18.0657C13.4749 16.1876 13.638 14.3471 13.8137 12.4969L13.7539 12.4912L13.6942 12.4855C13.5185 14.3357 13.3551 16.1803 13.317 18.0632L13.377 18.0644ZM13.7539 12.4912L13.8137 12.4969C13.8471 12.145 14.16 11.8867 14.5119 11.9201L14.5176 11.8603L14.5233 11.8006C14.1055 11.7609 13.7339 12.0676 13.6942 12.4855L13.7539 12.4912ZM11.7793 10.8848L11.778 10.9447C12.1313 10.9522 12.4122 11.2451 12.4049 11.5984L12.4649 11.5996L12.5249 11.6008C12.5336 11.1813 12.2001 10.8337 11.7806 10.8248L11.7793 10.8848ZM12.4649 11.5996L12.4049 11.5983C12.3974 11.9517 12.1046 12.2326 11.7513 12.2252L11.75 12.2851L11.7488 12.3451C12.1684 12.354 12.5159 12.0205 12.5248 11.6009L12.4649 11.5996ZM11.75 12.2851L11.7513 12.2252C10.9452 12.2081 10.3858 12.3211 10.0152 12.5422L10.0459 12.5937L10.0767 12.6453C10.4188 12.4411 10.9514 12.3282 11.7487 12.3451L11.75 12.2851ZM10.0459 12.5937L10.0152 12.5422C9.6797 12.7424 9.42719 13.0739 9.31789 13.6927L9.37697 13.7031L9.43606 13.7136C9.54037 13.1231 9.77604 12.8247 10.0767 12.6453L10.0459 12.5937ZM9.37697 13.7031L9.31789 13.6927C9.25644 14.0407 8.92403 14.2729 8.57588 14.2114L8.56545 14.2705L8.55502 14.3296C8.96829 14.4026 9.36306 14.127 9.43606 13.7136L9.37697 13.7031ZM8.56545 14.2705L8.57592 14.2114C8.22802 14.1498 7.99577 13.8183 8.05715 13.4704L7.99807 13.46L7.93898 13.4495C7.86606 13.8627 8.14197 14.2564 8.55498 14.3296L8.56545 14.2705ZM7.99807 13.46L8.05715 13.4704C8.2195 12.551 8.65169 11.8656 9.35986 11.4431L9.32912 11.3916L9.29838 11.3401C8.55521 11.7834 8.10628 12.5021 7.93898 13.4495L7.99807 13.46ZM9.32912 11.3916L9.35986 11.4431C10.0331 11.0415 10.8769 10.9257 11.778 10.9447L11.7793 10.8848L11.7806 10.8248C10.8704 10.8055 9.99993 10.9216 9.29838 11.3401L9.32912 11.3916ZM16.9502 8.04492L16.9646 8.10317C17.7423 7.91124 18.5752 8.01321 19.4215 8.26358L19.4385 8.20605L19.4555 8.14851C18.5988 7.89504 17.7424 7.78761 16.9358 7.98666L16.9502 8.04492ZM19.4385 8.20605L19.4215 8.26358C19.7604 8.36387 19.9539 8.72019 19.8536 9.05914L19.9112 9.07617L19.9687 9.09319C20.0878 8.69072 19.858 8.26761 19.4555 8.14851L19.4385 8.20605ZM19.9112 9.07617L19.8536 9.05913C19.7533 9.39798 19.3969 9.59156 19.0581 9.49129L19.041 9.54882L19.024 9.60636C19.4264 9.72544 19.8495 9.49559 19.9687 9.0932L19.9112 9.07617ZM19.041 9.54882L19.0581 9.49129C18.3239 9.2741 17.7417 9.23011 17.2718 9.34604L17.2862 9.40429L17.3005 9.46254C17.7416 9.35374 18.3003 9.39226 19.024 9.60636L19.041 9.54882ZM17.2862 9.40429L17.2718 9.34604C16.8233 9.45671 16.409 9.72966 16.0285 10.2915L16.0781 10.3252L16.1278 10.3588C16.4942 9.81785 16.8849 9.5651 17.3005 9.46254L17.2862 9.40429ZM16.0781 10.3252L16.0285 10.2915C15.8303 10.5842 15.4318 10.6611 15.1391 10.463L15.1055 10.5127L15.0719 10.5624C15.4194 10.7977 15.8925 10.7063 16.1278 10.3588L16.0781 10.3252ZM15.1055 10.5127L15.1391 10.463C14.8465 10.2649 14.7704 9.86644 14.9686 9.57367L14.919 9.54003L14.8693 9.50639C14.634 9.85385 14.7242 10.327 15.0718 10.5624L15.1055 10.5127ZM14.919 9.54003L14.9686 9.57368C15.4998 8.78939 16.1655 8.30043 16.9646 8.10317L16.9502 8.04492L16.9358 7.98666C16.1038 8.19206 15.4145 8.70133 14.8693 9.50639L14.919 9.54003Z" fill="#155926"></path></svg></g></g><defs><clipPath id="SvgjsClipPath2164"><rect width="1000" height="1000" x="0" y="0" rx="500" ry="500"></rect></clipPath></defs></svg>