<svg width="24" height="24" viewBox="0 0 24 24" fill="none" xmlns="http://www.w3.org/2000/svg">
<path d="M12 22.5C17.799 22.5 22.5 17.799 22.5 12C22.5 6.20101 17.799 1.5 12 1.5C6.20101 1.5 1.5 6.20101 1.5 12C1.5 17.799 6.20101 22.5 12 22.5Z" fill="white"/>
<path d="M12 1.75C17.6609 1.75 22.25 6.33908 22.25 12C22.25 17.6609 17.6609 22.25 12 22.25C6.33908 22.25 1.75 17.6609 1.75 12C1.75 6.33908 6.33908 1.75 12 1.75Z" stroke="black" stroke-opacity="0.35" stroke-width="0.5"/>
<path d="M21 12C21 16.9706 16.9706 21 12 21C7.02944 21 3 16.9706 3 12C3 7.02944 7.02944 3 12 3C16.9706 3 21 7.02944 21 12Z" fill="#34C759"/>
<path d="M12 3.25C7.16751 3.25 3.25 7.16751 3.25 12C3.25 16.8325 7.16751 20.75 12 20.75C16.8325 20.75 20.75 16.8325 20.75 12C20.75 7.16751 16.8325 3.25 12 3.25Z" stroke="black" stroke-opacity="0.04" stroke-width="0.5"/>
<path d="M16.1389 13.89C16.4282 13.8739 16.6761 14.095 16.6927 14.3842C16.7491 15.3949 16.0609 16.5566 15.055 17.2777C14.011 18.0259 12.542 18.3681 10.9573 17.6391C10.6942 17.5178 10.5795 17.206 10.7005 16.9428C10.8217 16.6795 11.1334 16.5639 11.3968 16.685C12.596 17.2366 13.6662 16.9815 14.4436 16.4242C15.259 15.8397 15.6751 14.9859 15.6448 14.4428C15.629 14.1537 15.8499 13.9065 16.1389 13.89ZM10.888 8.8959C11.1765 8.92331 11.3889 9.17962 11.3616 9.46817C11.2327 10.8257 11.1161 12.1453 11.0852 13.4799C11.7261 13.1356 12.304 12.8276 12.9309 12.4818C13.1847 12.3422 13.5038 12.4352 13.6438 12.6889C13.7837 12.9427 13.6915 13.2618 13.4378 13.4018C12.6275 13.8486 11.8994 14.2369 11.0227 14.7084L11.0022 14.7201L10.9798 14.7289C10.9621 14.7365 10.9523 14.7409 10.9397 14.7465C10.9337 14.7491 10.8992 14.7646 10.8596 14.7768C10.8098 14.792 10.7686 14.798 10.7503 14.8002C10.7436 14.801 10.7348 14.8018 10.7317 14.8022C10.7271 14.8027 10.7217 14.8034 10.7161 14.8041L10.6839 14.808H10.6507C10.4205 14.808 10.2328 14.6869 10.1282 14.5199C10.0425 14.3827 10.0267 14.2415 10.0266 14.1547C10.0267 12.5329 10.1651 10.9543 10.3157 9.36856C10.3432 9.08009 10.5995 8.86859 10.888 8.8959ZM8.83523 8.16446C9.12476 8.17073 9.35466 8.41013 9.3489 8.69961C9.34275 8.98948 9.10263 9.22038 8.81277 9.21426C8.2118 9.20151 7.80271 9.28641 7.53543 9.44571C7.29683 9.58805 7.11263 9.82423 7.0325 10.2777C6.98204 10.563 6.71038 10.7536 6.42507 10.7035C6.13957 10.6531 5.94888 10.3806 5.99929 10.0951C6.12295 9.39519 6.45316 8.869 6.99734 8.54434C7.51292 8.23681 8.15591 8.15004 8.83523 8.16446ZM12.7132 6.0336C13.3073 5.88702 13.9408 5.96574 14.5794 6.15469C14.8573 6.23693 15.0159 6.52913 14.9339 6.80704C14.8516 7.08504 14.5595 7.24374 14.2815 7.16153C13.7349 6.99979 13.3067 6.96895 12.9651 7.05313C12.6411 7.13309 12.339 7.33096 12.0589 7.74454C11.8963 7.98448 11.5694 8.04672 11.3294 7.88418C11.0897 7.72163 11.0266 7.39562 11.1887 7.15567C11.5925 6.55954 12.1014 6.18458 12.7132 6.0336Z" fill="#409154"/>
<path d="M16.1389 13.89L16.1364 13.8451L16.1364 13.8451L16.1389 13.89ZM16.6927 14.3842L16.7376 14.3817L16.7376 14.3816L16.6927 14.3842ZM15.055 17.2777L15.0812 17.3143L15.0812 17.3143L15.055 17.2777ZM10.9573 17.6391L10.9385 17.6799L10.9385 17.6799L10.9573 17.6391ZM10.7005 16.9428L10.6596 16.924L10.6596 16.924L10.7005 16.9428ZM11.3968 16.685L11.4156 16.6441L11.4156 16.6441L11.3968 16.685ZM14.4436 16.4242L14.4698 16.4608L14.4698 16.4608L14.4436 16.4242ZM15.6448 14.4428L15.5999 14.4452L15.5999 14.4453L15.6448 14.4428ZM10.888 8.8959L10.8922 8.85111L10.8922 8.8511L10.888 8.8959ZM11.3616 9.46817L11.4064 9.47242L11.4064 9.4724L11.3616 9.46817ZM11.0852 13.4799L11.0402 13.4788L11.0385 13.5561L11.1065 13.5195L11.0852 13.4799ZM12.9309 12.4818L12.9092 12.4424L12.9092 12.4424L12.9309 12.4818ZM13.6438 12.6889L13.6832 12.6672L13.6832 12.6671L13.6438 12.6889ZM13.4378 13.4018L13.4595 13.4412L13.4595 13.4412L13.4378 13.4018ZM11.0227 14.7084L11.0014 14.6688L11.0004 14.6693L11.0227 14.7084ZM11.0022 14.7201L11.0188 14.7625L11.0245 14.7592L11.0022 14.7201ZM10.9798 14.7289L10.9634 14.687L10.9621 14.6875L10.9798 14.7289ZM10.9397 14.7465L10.9578 14.7877L10.9578 14.7877L10.9397 14.7465ZM10.8596 14.7768L10.8728 14.8198L10.8729 14.8198L10.8596 14.7768ZM10.7503 14.8002L10.7557 14.8449L10.7557 14.8449L10.7503 14.8002ZM10.7317 14.8022L10.7267 14.7574L10.7267 14.7574L10.7317 14.8022ZM10.7161 14.8041L10.7215 14.8488L10.7217 14.8488L10.7161 14.8041ZM10.6839 14.808V14.8533L10.6893 14.8527L10.6839 14.808ZM10.1282 14.5199L10.09 14.5438L10.0901 14.5438L10.1282 14.5199ZM10.0266 14.1547L9.98164 14.1547V14.1547L10.0266 14.1547ZM10.3157 9.36856L10.2709 9.36429L10.2709 9.36431L10.3157 9.36856ZM8.83523 8.16446L8.83621 8.11947L8.83619 8.11947L8.83523 8.16446ZM9.3489 8.69961L9.39389 8.70057L9.39389 8.70051L9.3489 8.69961ZM8.81277 9.21426L8.81182 9.25925L8.81182 9.25925L8.81277 9.21426ZM7.53543 9.44571L7.51239 9.40705L7.51237 9.40706L7.53543 9.44571ZM7.0325 10.2777L7.07681 10.2856L7.07681 10.2856L7.0325 10.2777ZM6.42507 10.7035L6.41725 10.7478L6.41729 10.7478L6.42507 10.7035ZM5.99929 10.0951L5.95498 10.0873L5.95498 10.0873L5.99929 10.0951ZM6.99734 8.54434L6.97429 8.50569L6.97428 8.5057L6.99734 8.54434ZM12.7132 6.0336L12.7024 5.98991L12.7024 5.98991L12.7132 6.0336ZM14.5794 6.15469L14.5921 6.11154L14.5921 6.11154L14.5794 6.15469ZM14.9339 6.80704L14.977 6.8198L14.977 6.81977L14.9339 6.80704ZM14.2815 7.16153L14.2688 7.20468L14.2688 7.20468L14.2815 7.16153ZM12.9651 7.05313L12.9543 7.00944L12.9543 7.00944L12.9651 7.05313ZM12.0589 7.74454L12.0961 7.76978L12.0961 7.76977L12.0589 7.74454ZM11.3294 7.88418L11.3041 7.92143L11.3041 7.92145L11.3294 7.88418ZM11.1887 7.15567L11.1515 7.13044L11.1515 7.13047L11.1887 7.15567ZM16.1389 13.89L16.1415 13.935C16.4059 13.9202 16.6326 14.1224 16.6477 14.3868L16.6927 14.3842L16.7376 14.3816C16.7196 14.0676 16.4504 13.8276 16.1364 13.8451L16.1389 13.89ZM16.6927 14.3842L16.6477 14.3867C16.7031 15.3773 16.0266 16.5258 15.0287 17.2412L15.055 17.2777L15.0812 17.3143C16.0952 16.5874 16.7952 15.4125 16.7376 14.3817L16.6927 14.3842ZM15.055 17.2777L15.0287 17.2412C13.9962 17.9811 12.5442 18.3196 10.9761 17.5982L10.9573 17.6391L10.9385 17.6799C12.5397 18.4166 14.0259 18.0706 15.0812 17.3143L15.055 17.2777ZM10.9573 17.6391L10.9761 17.5982C10.7357 17.4874 10.6308 17.2023 10.7414 16.9616L10.7005 16.9428L10.6596 16.924C10.5283 17.2097 10.6527 17.5483 10.9385 17.6799L10.9573 17.6391ZM10.7005 16.9428L10.7413 16.9616C10.8522 16.7209 11.1373 16.6152 11.378 16.7259L11.3968 16.685L11.4156 16.6441C11.1296 16.5126 10.7912 16.6382 10.6596 16.924L10.7005 16.9428ZM11.3968 16.685L11.378 16.7258C12.5937 17.285 13.681 17.0263 14.4698 16.4608L14.4436 16.4242L14.4174 16.3876C13.6514 16.9367 12.5983 17.1881 11.4156 16.6441L11.3968 16.685ZM14.4436 16.4242L14.4698 16.4608C14.8829 16.1647 15.1951 15.8002 15.4004 15.4403C15.6053 15.0812 15.7055 14.7232 15.6897 14.4403L15.6448 14.4428L15.5999 14.4453C15.6144 14.7054 15.5217 15.046 15.3223 15.3957C15.1232 15.7446 14.8197 16.0993 14.4174 16.3877L14.4436 16.4242ZM15.6448 14.4428L15.6897 14.4403C15.6753 14.176 15.8773 13.95 16.1415 13.935L16.1389 13.89L16.1364 13.8451C15.8225 13.8629 15.5827 14.1314 15.5999 14.4452L15.6448 14.4428ZM10.888 8.8959L10.8837 8.9407C11.1476 8.96576 11.3417 9.20017 11.3168 9.46394L11.3616 9.46817L11.4064 9.4724C11.436 9.15907 11.2055 8.88085 10.8922 8.85111L10.888 8.8959ZM11.3616 9.46817L11.3168 9.46392C11.1879 10.8215 11.0711 12.1425 11.0402 13.4788L11.0852 13.4799L11.1302 13.4809C11.161 12.1481 11.2775 10.83 11.4064 9.47242L11.3616 9.46817ZM11.0852 13.4799L11.1065 13.5195C11.7473 13.1753 12.3254 12.8671 12.9527 12.5212L12.9309 12.4818L12.9092 12.4424C12.2825 12.788 11.705 13.0959 11.0639 13.4402L11.0852 13.4799ZM12.9309 12.4818L12.9526 12.5213C13.1846 12.3936 13.4764 12.4786 13.6044 12.7106L13.6438 12.6889L13.6832 12.6671C13.5313 12.3919 13.1849 12.2908 12.9092 12.4424L12.9309 12.4818ZM13.6438 12.6889L13.6044 12.7106C13.7323 12.9427 13.648 13.2344 13.416 13.3624L13.4378 13.4018L13.4595 13.4412C13.7351 13.2891 13.8351 12.9427 13.6832 12.6672L13.6438 12.6889ZM13.4378 13.4018L13.416 13.3624C12.606 13.809 11.8783 14.1971 11.0014 14.6688L11.0227 14.7084L11.044 14.748C11.9206 14.2766 12.649 13.8881 13.4595 13.4412L13.4378 13.4018ZM11.0227 14.7084L11.0004 14.6693L10.9799 14.6811L11.0022 14.7201L11.0245 14.7592L11.0451 14.7475L11.0227 14.7084ZM11.0022 14.7201L10.9858 14.6782L10.9634 14.687L10.9798 14.7289L10.9962 14.7708L11.0186 14.762L11.0022 14.7201ZM10.9798 14.7289L10.9621 14.6875C10.9441 14.6952 10.9335 14.7 10.9216 14.7053L10.9397 14.7465L10.9578 14.7877C10.9711 14.7818 10.98 14.7777 10.9974 14.7703L10.9798 14.7289ZM10.9397 14.7465L10.9216 14.7053C10.9156 14.7079 10.8832 14.7224 10.8464 14.7337L10.8596 14.7768L10.8729 14.8198C10.9152 14.8068 10.9518 14.7904 10.9578 14.7877L10.9397 14.7465ZM10.8596 14.7768L10.8465 14.7337C10.8001 14.748 10.7616 14.7535 10.7448 14.7555L10.7503 14.8002L10.7557 14.8449C10.7756 14.8424 10.8196 14.8361 10.8728 14.8198L10.8596 14.7768ZM10.7503 14.8002L10.7448 14.7555C10.742 14.7559 10.7385 14.7562 10.7352 14.7566C10.7322 14.7569 10.7286 14.7572 10.7267 14.7574L10.7317 14.8022L10.7367 14.8469C10.7372 14.8468 10.7497 14.8456 10.7557 14.8449L10.7503 14.8002ZM10.7317 14.8022L10.7267 14.7574C10.7217 14.758 10.7156 14.7588 10.7104 14.7595L10.7161 14.8041L10.7217 14.8488C10.7278 14.848 10.7326 14.8473 10.7368 14.8469L10.7317 14.8022ZM10.7161 14.8041L10.7107 14.7594L10.6784 14.7633L10.6839 14.808L10.6893 14.8527L10.7215 14.8488L10.7161 14.8041ZM10.6839 14.808V14.763H10.6507V14.808V14.853H10.6839V14.808ZM10.6507 14.808V14.763C10.4371 14.763 10.2634 14.6509 10.1663 14.496L10.1282 14.5199L10.0901 14.5438C10.2023 14.7229 10.4038 14.853 10.6507 14.853V14.808ZM10.1282 14.5199L10.1664 14.4961C10.0866 14.3685 10.0717 14.2366 10.0716 14.1547L10.0266 14.1547L9.98164 14.1547C9.98169 14.2464 9.99826 14.3969 10.09 14.5438L10.1282 14.5199ZM10.0266 14.1547L10.0716 14.1547C10.0717 12.5352 10.2099 10.9586 10.3605 9.37281L10.3157 9.36856L10.2709 9.36431C10.1203 10.9501 9.98166 12.5305 9.98164 14.1547L10.0266 14.1547ZM10.3157 9.36856L10.3605 9.37283C10.3857 9.10912 10.6199 8.91573 10.8837 8.9407L10.888 8.8959L10.8922 8.8511C10.579 8.82146 10.3008 9.05105 10.2709 9.36429L10.3157 9.36856ZM8.83523 8.16446L8.83426 8.20945C9.099 8.21518 9.30917 8.43409 9.30391 8.69872L9.3489 8.69961L9.39389 8.70051C9.40014 8.38618 9.15052 8.12628 8.83621 8.11947L8.83523 8.16446ZM9.3489 8.69961L9.30391 8.69866C9.29829 8.96377 9.07865 9.17487 8.81372 9.16927L8.81277 9.21426L8.81182 9.25925C9.12661 9.2659 9.38722 9.0152 9.39389 8.70057L9.3489 8.69961ZM8.81277 9.21426L8.81372 9.16927C8.20943 9.15645 7.79032 9.24141 7.51239 9.40705L7.53543 9.44571L7.55846 9.48436C7.8151 9.33141 8.21417 9.24657 8.81182 9.25925L8.81277 9.21426ZM7.53543 9.44571L7.51237 9.40706C7.26079 9.55716 7.0702 9.8057 6.98818 10.2699L7.0325 10.2777L7.07681 10.2856C7.15505 9.84277 7.33288 9.61895 7.55848 9.48435L7.53543 9.44571ZM7.0325 10.2777L6.98818 10.2699C6.94204 10.5308 6.69366 10.705 6.43286 10.6592L6.42507 10.7035L6.41729 10.7478C6.7271 10.8023 7.02203 10.5953 7.07681 10.2856L7.0325 10.2777ZM6.42507 10.7035L6.4329 10.6592C6.17186 10.6131 5.99751 10.364 6.04361 10.1029L5.99929 10.0951L5.95498 10.0873C5.90024 10.3973 6.10727 10.6931 6.41725 10.7478L6.42507 10.7035ZM5.99929 10.0951L6.04361 10.103C6.1654 9.41353 6.48934 8.89982 7.0204 8.58299L6.99734 8.54434L6.97428 8.5057C6.41697 8.83819 6.08049 9.37684 5.95498 10.0873L5.99929 10.0951ZM6.99734 8.54434L7.02039 8.58299C7.52534 8.2818 8.15832 8.1951 8.83428 8.20945L8.83523 8.16446L8.83619 8.11947C8.15351 8.10498 7.50051 8.19181 6.97429 8.50569L6.99734 8.54434ZM12.7132 6.0336L12.7239 6.07729C13.3072 5.93338 13.9319 6.01005 14.5666 6.19784L14.5794 6.15469L14.5921 6.11154C13.9496 5.92143 13.3073 5.84066 12.7024 5.98991L12.7132 6.0336ZM14.5794 6.15469L14.5666 6.19784C14.8206 6.27302 14.9657 6.54018 14.8907 6.7943L14.9339 6.80704L14.977 6.81977C15.066 6.51808 14.8939 6.20084 14.5921 6.11154L14.5794 6.15469ZM14.9339 6.80704L14.8907 6.79427C14.8155 7.04844 14.5485 7.19354 14.2943 7.11838L14.2815 7.16153L14.2688 7.20468C14.5706 7.29394 14.8877 7.12164 14.977 6.8198L14.9339 6.80704ZM14.2815 7.16153L14.2943 7.11838C13.7437 6.95548 13.3068 6.9226 12.9543 7.00944L12.9651 7.05313L12.9759 7.09682C13.3067 7.01531 13.7261 7.04411 14.2688 7.20468L14.2815 7.16153ZM12.9651 7.05313L12.9543 7.00944C12.618 7.09245 12.307 7.29793 12.0216 7.7193L12.0589 7.74454L12.0961 7.76977C12.3709 7.364 12.6642 7.17373 12.9759 7.09682L12.9651 7.05313ZM12.0589 7.74454L12.0216 7.71929C11.873 7.93859 11.5741 7.99558 11.3546 7.84692L11.3294 7.88418L11.3041 7.92145C11.5647 8.09786 11.9195 8.03038 12.0961 7.76978L12.0589 7.74454ZM11.3294 7.88418L11.3546 7.84694C11.1354 7.69829 11.0778 7.40021 11.226 7.18087L11.1887 7.15567L11.1515 7.13047C10.9754 7.39103 11.0439 7.74497 11.3041 7.92143L11.3294 7.88418ZM11.1887 7.15567L11.226 7.1809C11.6244 6.59256 12.1245 6.22521 12.7239 6.07729L12.7132 6.0336L12.7024 5.98991C12.0782 6.14394 11.5605 6.52651 11.1515 7.13044L11.1887 7.15567Z" fill="#155926"/>
</svg>
